<?xml version="1.0" encoding="utf-8"?>
<!-- Generator: Adobe Illustrator 15.1.0, SVG Export Plug-In . SVG Version: 6.00 Build 0)  -->
<!DOCTYPE svg PUBLIC "-//W3C//DTD SVG 1.1//EN" "http://www.w3.org/Graphics/SVG/1.1/DTD/svg11.dtd">
<svg version="1.1" id="Calque_1" xmlns="http://www.w3.org/2000/svg" xmlns:xlink="http://www.w3.org/1999/xlink" x="0px" y="0px"
	 width="80px" height="80px" viewBox="0 0 80 80" enable-background="new 0 0 80 80" xml:space="preserve">
<g id="repères">
	<rect x="88" y="54" fill="#FF0000" width="10" height="10"/>
</g>
<g id="icons">
	<g id="left-arrow" display="none">
		<g display="inline">
			
				<line fill="none" stroke="#000000" stroke-width="5" stroke-linecap="round" stroke-miterlimit="10" x1="10" y1="40" x2="40.5" y2="10"/>
			
				<line fill="none" stroke="#000000" stroke-width="5" stroke-linecap="round" stroke-miterlimit="10" x1="10" y1="40" x2="40.499" y2="70.5"/>
		</g>
		<path display="inline" d="M15.442,40.033l26.513-26.078c0.908-0.895,0.923-2.356,0.027-3.266
			c-0.896-0.909-2.355-0.921-3.266-0.027L10.544,38.373c-0.002,0.002-0.004,0.005-0.006,0.007s-0.005,0.004-0.008,0.006
			c-0.053,0.053-0.091,0.114-0.138,0.169c-0.051,0.062-0.107,0.12-0.151,0.186c-0.043,0.065-0.074,0.136-0.109,0.205
			c-0.035,0.065-0.076,0.128-0.104,0.196c-0.03,0.074-0.046,0.15-0.069,0.226c-0.02,0.067-0.046,0.132-0.059,0.2
			c-0.016,0.078-0.018,0.156-0.024,0.234c-0.006,0.069-0.02,0.138-0.02,0.207c0,0.077,0.012,0.153,0.021,0.23
			c0.006,0.07,0.006,0.141,0.021,0.211c0.014,0.075,0.041,0.146,0.062,0.219c0.021,0.069,0.035,0.142,0.062,0.209
			c0.028,0.069,0.069,0.136,0.105,0.202c0.035,0.066,0.063,0.136,0.104,0.199c0.042,0.064,0.097,0.121,0.146,0.183
			c0.047,0.06,0.087,0.12,0.142,0.175c0.002,0.004,0.005,0.004,0.008,0.008c0.002,0.002,0.003,0.004,0.005,0.006l28.172,28.174
			c0.451,0.451,1.042,0.676,1.633,0.676s1.183-0.225,1.634-0.676c0.9-0.901,0.9-2.363,0-3.266L15.442,40.033z"/>
	</g>
	<g id="close">
		<polygon points="76.614,16.364 63.886,3.636 40.125,27.397 16.364,3.636 3.636,16.364 27.397,40.125 3.636,63.886 16.364,76.614 
			40.125,52.854 63.886,76.614 76.614,63.886 52.854,40.125 		"/>
		<polygon display="none" points="73.432,13.182 67.068,6.818 40.125,33.761 13.182,6.818 6.818,13.182 33.761,40.125 6.818,67.068 
			13.182,73.432 40.125,46.488 67.068,73.432 73.432,67.068 46.488,40.125 		"/>
	</g>
	<path id="trashcan" display="none" d="M17.75,25.167v44.5h44.5v-44.5H17.75z M30.111,59.777c0,1.363-1.108,2.473-2.472,2.473
		c-1.364,0-2.472-1.107-2.472-2.473V35.056c0-1.364,1.108-2.473,2.472-2.473c1.364,0,2.472,1.108,2.472,2.473V59.777z
		 M42.473,59.777c0,1.363-1.107,2.473-2.473,2.473c-1.365,0-2.472-1.107-2.472-2.473V35.056c0-1.364,1.108-2.473,2.472-2.473
		c1.363,0,2.473,1.108,2.473,2.473V59.777z M54.834,59.777c0,1.363-1.107,2.473-2.473,2.473s-2.473-1.107-2.473-2.473V35.056
		c0-1.364,1.107-2.473,2.473-2.473s2.473,1.108,2.473,2.473V59.777z M64.723,15.277v4.945H15.277v-4.945h14.119
		c2.225,0,4.032-2.717,4.032-4.944h13.14c0,2.227,1.805,4.944,4.033,4.944H64.723z"/>
	<path id="magnifier" display="none" d="M69.477,58.907L52.6,42.029c7.014-14.545-3.591-31.724-19.958-31.724
		c-12.203,0-22.136,9.933-22.136,22.139c0,16.105,16.675,26.72,31.183,20.208L58.71,69.673
		C63.553,70.081,69.893,63.919,69.477,58.907z M32.64,47.227c-8.148,0-14.779-6.631-14.779-14.782
		c0-8.148,6.631-14.779,14.779-14.779c8.152,0,14.784,6.631,14.784,14.779C47.424,40.594,40.792,47.227,32.64,47.227z"/>
</g>
</svg>
