<?xml version="1.0" encoding="utf-8"?>
<!-- Generator: Adobe Illustrator 15.1.0, SVG Export Plug-In . SVG Version: 6.00 Build 0)  -->
<!DOCTYPE svg PUBLIC "-//W3C//DTD SVG 1.1//EN" "http://www.w3.org/Graphics/SVG/1.1/DTD/svg11.dtd">
<svg version="1.1" xmlns="http://www.w3.org/2000/svg" xmlns:xlink="http://www.w3.org/1999/xlink" x="0px" y="0px" width="80px"
	 height="80px" viewBox="0 0 80 80" enable-background="new 0 0 80 80" xml:space="preserve">
<g id="repères">
	<rect x="88" y="54" display="none" fill="#FF0000" width="10" height="10"/>
</g>
<g id="icons">
	<g id="left-arrow" display="none">
		<g>
			
				<line display="inline" fill="none" stroke="#000000" stroke-width="5" stroke-linecap="round" stroke-miterlimit="10" x1="10" y1="40" x2="40.5" y2="10"/>
			
				<line display="inline" fill="none" stroke="#000000" stroke-width="5" stroke-linecap="round" stroke-miterlimit="10" x1="10" y1="40" x2="40.499" y2="70.5"/>
		</g>
		<path display="inline" d="M15.442,40.033l26.513-26.078c0.909-0.895,0.923-2.356,0.027-3.266
			c-0.895-0.909-2.355-0.921-3.265-0.027L10.544,38.373c-0.002,0.002-0.004,0.005-0.006,0.007c-0.002,0.002-0.005,0.004-0.008,0.006
			c-0.053,0.053-0.091,0.114-0.138,0.169c-0.051,0.062-0.107,0.12-0.151,0.186c-0.043,0.065-0.074,0.136-0.109,0.205
			c-0.035,0.065-0.076,0.128-0.104,0.196c-0.03,0.074-0.046,0.15-0.069,0.226c-0.02,0.067-0.046,0.132-0.059,0.2
			c-0.016,0.078-0.018,0.156-0.024,0.234c-0.006,0.069-0.02,0.138-0.02,0.207c0,0.077,0.012,0.153,0.021,0.23
			c0.006,0.07,0.006,0.141,0.021,0.211c0.014,0.075,0.041,0.146,0.062,0.219c0.021,0.07,0.035,0.141,0.062,0.209
			c0.028,0.07,0.069,0.135,0.105,0.202c0.035,0.067,0.063,0.136,0.104,0.2c0.042,0.063,0.097,0.12,0.146,0.182
			c0.047,0.059,0.087,0.12,0.142,0.175c0.002,0.003,0.005,0.004,0.008,0.007c0.002,0.003,0.003,0.005,0.005,0.007l28.172,28.173
			c0.451,0.451,1.042,0.676,1.633,0.676s1.182-0.225,1.633-0.676c0.901-0.901,0.901-2.363,0-3.266L15.442,40.033z"/>
	</g>
	<g id="right-arrow" display="none">
		<g>
			
				<line display="inline" fill="none" stroke="#000000" stroke-width="5" stroke-linecap="round" stroke-miterlimit="10" x1="70" y1="40" x2="39.5" y2="10"/>
			
				<line display="inline" fill="none" stroke="#000000" stroke-width="5" stroke-linecap="round" stroke-miterlimit="10" x1="70" y1="40" x2="39.501" y2="70.5"/>
		</g>
		<path display="inline" d="M64.558,40.033L38.045,13.955c-0.909-0.895-0.923-2.356-0.027-3.266
			c0.895-0.909,2.355-0.921,3.266-0.027l28.173,27.711c0.002,0.002,0.004,0.005,0.006,0.007c0.003,0.002,0.005,0.004,0.008,0.006
			c0.053,0.053,0.091,0.114,0.138,0.169c0.051,0.062,0.107,0.12,0.152,0.186c0.043,0.065,0.073,0.136,0.109,0.205
			c0.035,0.065,0.075,0.128,0.104,0.196c0.029,0.074,0.046,0.15,0.068,0.226c0.02,0.067,0.047,0.132,0.06,0.2
			c0.016,0.078,0.018,0.156,0.024,0.234c0.006,0.069,0.02,0.138,0.02,0.207c0.001,0.077-0.012,0.153-0.02,0.23
			c-0.007,0.07-0.007,0.141-0.021,0.211c-0.014,0.075-0.041,0.146-0.062,0.219c-0.021,0.07-0.034,0.141-0.062,0.209
			c-0.028,0.07-0.069,0.135-0.104,0.202s-0.063,0.136-0.105,0.2c-0.041,0.063-0.096,0.12-0.145,0.182
			c-0.048,0.059-0.088,0.12-0.143,0.175c-0.002,0.003-0.005,0.004-0.008,0.007c-0.002,0.003-0.003,0.005-0.005,0.007L41.297,69.824
			c-0.45,0.451-1.042,0.676-1.632,0.676s-1.182-0.225-1.633-0.676c-0.901-0.901-0.901-2.363,0-3.266L64.558,40.033z"/>
	</g>
	<g id="close" display="none">
		<g>
			
				<line display="inline" fill="none" stroke="#000000" stroke-width="9" stroke-miterlimit="10" x1="10" y1="10" x2="70.25" y2="70.25"/>
			
				<line display="inline" fill="none" stroke="#000000" stroke-width="9" stroke-miterlimit="10" x1="70.25" y1="10" x2="10" y2="70.25"/>
		</g>
		<polygon display="inline" points="73.432,13.182 67.068,6.818 40.125,33.761 13.182,6.818 6.818,13.182 33.761,40.125 
			6.818,67.068 13.182,73.432 40.125,46.488 67.068,73.432 73.432,67.068 46.488,40.125 		"/>
		<g display="inline">
			<line fill="none" stroke="#000000" stroke-width="18" stroke-miterlimit="10" x1="10" y1="10" x2="70.25" y2="70.25"/>
			<line fill="none" stroke="#000000" stroke-width="18" stroke-miterlimit="10" x1="70.25" y1="10" x2="10" y2="70.25"/>
		</g>
		<polygon display="inline" points="76.614,16.364 63.886,3.636 40.125,27.397 16.364,3.636 3.636,16.364 27.397,40.125 
			3.636,63.886 16.364,76.614 40.125,52.854 63.886,76.614 76.614,63.886 52.854,40.125 		"/>
	</g>
	<path id="trashcan" display="none" d="M17.75,25.167v44.5h44.5v-44.5H17.75z M30.111,59.778c0,1.363-1.108,2.472-2.472,2.472
		c-1.364,0-2.472-1.108-2.472-2.472V35.056c0-1.364,1.108-2.473,2.472-2.473c1.364,0,2.472,1.108,2.472,2.473V59.778z
		 M42.473,59.778c0,1.363-1.108,2.472-2.473,2.472s-2.472-1.108-2.472-2.472V35.056c0-1.364,1.108-2.473,2.472-2.473
		s2.473,1.108,2.473,2.473V59.778z M54.834,59.778c0,1.363-1.108,2.472-2.473,2.472s-2.473-1.108-2.473-2.472V35.056
		c0-1.364,1.108-2.473,2.473-2.473s2.473,1.108,2.473,2.473V59.778z M64.723,15.277v4.945H15.277v-4.945h14.119
		c2.225,0,4.032-2.717,4.032-4.944h13.141c0,2.227,1.804,4.944,4.032,4.944H64.723z"/>
	<path id="magnifier" display="none" d="M69.477,58.907L52.599,42.029c7.014-14.545-3.59-31.724-19.958-31.724
		c-12.203,0-22.136,9.933-22.136,22.139c0,16.105,16.675,26.72,31.183,20.208l17.022,17.021
		C63.552,70.081,69.893,63.919,69.477,58.907z M32.64,47.226c-8.148,0-14.779-6.631-14.779-14.781
		c0-8.148,6.631-14.779,14.779-14.779c8.152,0,14.784,6.631,14.784,14.779C47.424,40.594,40.792,47.226,32.64,47.226z"/>
	<g id="forbidden" display="none">
		<g display="inline">
			<path d="M40,16.306c13.064,0,23.693,10.629,23.693,23.694c0,13.065-10.629,23.694-23.693,23.694
				c-13.065,0-23.694-10.629-23.694-23.694C16.306,26.935,26.935,16.306,40,16.306 M40,10.306
				c-16.399,0-29.694,13.294-29.694,29.694S23.601,69.694,40,69.694S69.693,56.399,69.693,40S56.399,10.306,40,10.306L40,10.306z"/>
		</g>
		<g display="inline">
			<polygon points="57,37 23,37 23,43 57,43 57,37 			"/>
		</g>
	</g>
	<g id="warning" display="none">
		<g display="inline">
			<path d="M40,23.417L60.292,64H19.708L40,23.417 M40,10L10,70h60L40,10L40,10z"/>
		</g>
		<g display="inline">
			<path d="M42.737,55.696v5.369h-5.475v-5.369H42.737z M41.203,53.604h-2.476l-1.325-10.742v-6.695h5.163v6.695L41.203,53.604z"/>
		</g>
	</g>
	<polygon id="download" display="none" points="50,48 50,10 29,10 29,48 17.373,48 40,70.627 62.627,48 	"/>
	<polygon id="upload" display="none" points="30,32 30,70 51,70 51,32 62.627,32 40,9.373 17.373,32 	"/>
	<g display="none">
		
			<line display="inline" fill="none" stroke="#000000" stroke-width="2.8389" stroke-miterlimit="10" x1="30.623" y1="22.623" x2="49.628" y2="41.627"/>
		
			<line display="inline" fill="none" stroke="#000000" stroke-width="2.8389" stroke-miterlimit="10" x1="49.628" y1="22.623" x2="30.623" y2="41.627"/>
	</g>
	<g id="no_image" display="none">
		<polygon display="inline" points="29.619,40.623 29.619,40.623 31.626,42.632 31.627,42.631 32.63,43.635 40.125,36.141 
			47.62,43.635 48.623,42.631 48.624,42.632 50.632,40.623 50.632,40.623 51.635,39.619 44.141,32.125 51.635,24.63 50.632,23.627 
			50.632,23.626 48.624,21.619 48.624,21.619 47.62,20.615 40.125,28.11 32.63,20.615 31.627,21.619 31.626,21.619 29.619,23.626 
			29.619,23.627 28.615,24.63 36.11,32.125 28.615,39.619 		"/>
		<path display="inline" d="M10,10v45v15h59h1V10H10z M66,55H14V14h52V55z"/>
	</g>
	<path id="microphone" display="none" d="M50.056,37.486c0,5.553-4.503,10.056-10.056,10.056c-5.553,0-10.056-4.503-10.056-10.056
		V19.889c0-5.553,4.502-10.056,10.056-10.056c5.553,0,10.056,4.502,10.056,10.056V37.486z M60.111,32.458v5.028
		c0,11.108-9.005,20.11-20.111,20.11s-20.111-9.002-20.111-20.11v-5.028h5.028v5.028c0,8.317,6.766,15.083,15.083,15.083
		s15.083-6.766,15.083-15.083v-5.028H60.111z M42.514,65.139v-5.027h-5.027v5.027H27.431v5.027h25.139v-5.027H42.514z"/>
	<g display="none">
		<rect x="11" y="24" display="inline" fill="#00FFFF" width="59" height="24"/>
		<path display="inline" d="M69,25v22H11V25H69 M70,24h-0.721H11.382H10v0.537v22.566V48h1.382h57.897H70v-0.896V24.537V24L70,24z"
			/>
	</g>
	<polygon display="none" fill="none" stroke="#161615" stroke-miterlimit="10" points="58.5,24.5 56.062,24.844 55.812,21.844 
		58.5,21.812 	"/>
	<g display="none">
		<polygon display="inline" fill="none" stroke="#161615" stroke-width="0.25" stroke-miterlimit="10" points="52.375,30.125 
			52.084,31.083 64.375,30.984 64,29.625 		"/>
		<polygon display="inline" fill="none" stroke="#161615" stroke-width="0.25" stroke-miterlimit="10" points="53.078,30.354 
			53.672,28.922 62.578,28.359 63.547,29.938 		"/>
		<path display="inline" fill="none" stroke="#161615" stroke-width="0.25" stroke-miterlimit="10" d="M55.75,28.359
			c0,0,2.844,0.109,4.125-0.547c-0.25-1.75-1.137-9.417-1.324-9.729s-3.426-0.239-4.176,0.761
			C54.531,19.938,55.75,28.359,55.75,28.359z"/>
		
			<rect x="40.975" y="24.668" transform="matrix(-0.9765 0.2157 -0.2157 -0.9765 100.7717 39.3383)" display="inline" fill="none" stroke="#161615" stroke-width="0.2643" stroke-miterlimit="10" width="14.529" height="1"/>
		<g display="inline">
			<polygon fill="#161615" points="53.729,25.255 55.188,28.366 52.896,25.807 			"/>
		</g>
		<g display="inline">
			<polygon fill="#161615" points="60.531,27.906 61.841,24.419 62.722,24.893 			"/>
		</g>
		<g display="inline">
			<polygon fill="#161615" points="58.154,24.954 57.938,28.062 57.158,25.046 			"/>
		</g>
		<polygon display="inline" fill="none" stroke="#161615" stroke-width="0.2643" stroke-miterlimit="10" points="55.214,24.656 
			54.078,23.938 54.917,22.599 56.928,23.683 		"/>
	</g>
	<g id="sold" display="none">
		<polygon display="inline" fill="#161615" points="68.928,53.289 67.299,53.358 65.239,50.007 42.14,51.465 40.883,54.495 
			38.776,54.586 38.021,57.072 69.9,56.815 		"/>
		<polygon display="inline" fill="#161615" points="42.289,41.955 46.07,50.024 40.125,43.387 		"/>
		<polygon display="inline" fill="#161615" points="59.931,48.831 63.327,39.788 65.612,41.016 		"/>
		<path display="inline" fill="#161615" d="M54.794,23.353c-0.486-0.81-8.886-0.621-10.831,1.973c0.16,1.12,0.751,5.209,1.406,9.741
			l-1.098,1.751l-34.9,7.709l0.56,2.532l34.637-7.652l1.57,0.994c0.744,5.146,1.391,9.605,1.391,9.605s7.376,0.284,10.699-1.418
			C57.58,44.049,55.28,24.164,54.794,23.353z M53.203,49.236l-2.021-7.824l2.584-0.238L53.203,49.236z"/>
	</g>
	<g id="sold_1_">
		<polygon fill="#161615" points="68.757,55.624 66.842,55.706 64.42,51.766 37.261,53.479 35.784,57.042 33.307,57.149 
			32.419,60.072 69.9,59.771 		"/>
		<polygon fill="#161615" points="37.437,42.299 41.883,51.786 34.894,43.982 		"/>
		<polygon fill="#161615" points="58.179,50.383 62.172,39.75 64.858,41.194 		"/>
		<path fill="#161615" d="M52.14,20.427c-0.572-0.953-10.447-0.729-12.734,2.32c0.188,1.317,0.883,6.125,1.653,11.453l-1.291,2.059
			l-29.636,6.04l0.659,2.977l29.327-5.972l1.846,1.169c0.875,6.05,1.636,11.293,1.636,11.293s8.672,0.334,12.579-1.667
			C55.415,44.761,52.711,21.381,52.14,20.427z M50.27,50.859l-2.377-9.199l3.038-0.28L50.27,50.859z"/>
	</g>
	<g id="edit" display="none">
		
			<rect x="34.763" y="6.83" transform="matrix(0.7071 0.7071 -0.7071 0.7071 38.9863 -19.0124)" display="inline" width="15.362" height="61.451"/>
		<polygon display="inline" points="13.114,56.024 23.977,66.887 10.399,69.602 		"/>
	</g>
</g>
</svg>
