<?xml version="1.0" encoding="utf-8"?>
<!-- Generator: Adobe Illustrator 15.1.0, SVG Export Plug-In . SVG Version: 6.00 Build 0)  -->
<!DOCTYPE svg PUBLIC "-//W3C//DTD SVG 1.1//EN" "http://www.w3.org/Graphics/SVG/1.1/DTD/svg11.dtd">
<svg version="1.1" xmlns="http://www.w3.org/2000/svg" xmlns:xlink="http://www.w3.org/1999/xlink" x="0px" y="0px" width="80px"
	 height="80px" viewBox="0 0 80 80" enable-background="new 0 0 80 80" xml:space="preserve">
<g id="repères">
	<rect x="88" y="54" fill="#FF0000" width="10" height="10"/>
</g>
<g id="icons">
	<g id="left-arrow" display="none">
		<g>
			
				<line display="inline" fill="none" stroke="#000000" stroke-width="5" stroke-linecap="round" stroke-miterlimit="10" x1="10" y1="40" x2="40.5" y2="10"/>
			
				<line display="inline" fill="none" stroke="#000000" stroke-width="5" stroke-linecap="round" stroke-miterlimit="10" x1="10" y1="40" x2="40.499" y2="70.5"/>
		</g>
		<path display="inline" d="M15.442,40.033l26.513-26.078c0.909-0.895,0.923-2.356,0.027-3.266
			c-0.895-0.909-2.355-0.921-3.265-0.027L10.544,38.373c-0.002,0.002-0.004,0.005-0.006,0.007c-0.002,0.002-0.005,0.004-0.008,0.006
			c-0.053,0.053-0.091,0.114-0.138,0.169c-0.051,0.062-0.107,0.12-0.151,0.186c-0.043,0.065-0.074,0.136-0.109,0.205
			c-0.035,0.065-0.076,0.128-0.104,0.196c-0.03,0.074-0.046,0.15-0.069,0.226c-0.02,0.067-0.046,0.132-0.059,0.2
			c-0.016,0.078-0.018,0.156-0.024,0.234c-0.006,0.069-0.02,0.138-0.02,0.207c0,0.077,0.012,0.153,0.021,0.23
			c0.006,0.07,0.006,0.141,0.021,0.211c0.014,0.075,0.041,0.146,0.062,0.219c0.021,0.07,0.035,0.141,0.062,0.209
			c0.028,0.07,0.069,0.135,0.105,0.202c0.035,0.067,0.063,0.136,0.104,0.2c0.042,0.063,0.097,0.12,0.146,0.182
			c0.047,0.059,0.087,0.12,0.142,0.175c0.002,0.003,0.005,0.004,0.008,0.007c0.002,0.003,0.003,0.005,0.005,0.007l28.172,28.173
			c0.451,0.451,1.042,0.676,1.633,0.676s1.182-0.225,1.633-0.676c0.901-0.901,0.901-2.363,0-3.266L15.442,40.033z"/>
	</g>
	<g id="close" display="none">
		<g>
			
				<line display="inline" fill="none" stroke="#000000" stroke-width="9" stroke-miterlimit="10" x1="10" y1="10" x2="70.25" y2="70.25"/>
			
				<line display="inline" fill="none" stroke="#000000" stroke-width="9" stroke-miterlimit="10" x1="70.25" y1="10" x2="10" y2="70.25"/>
		</g>
		<polygon display="inline" points="73.432,13.182 67.068,6.818 40.125,33.761 13.182,6.818 6.818,13.182 33.761,40.125 
			6.818,67.068 13.182,73.432 40.125,46.488 67.068,73.432 73.432,67.068 46.488,40.125 		"/>
		<g display="inline">
			<line fill="none" stroke="#000000" stroke-width="18" stroke-miterlimit="10" x1="10" y1="10" x2="70.25" y2="70.25"/>
			<line fill="none" stroke="#000000" stroke-width="18" stroke-miterlimit="10" x1="70.25" y1="10" x2="10" y2="70.25"/>
		</g>
		<polygon display="inline" points="76.614,16.364 63.886,3.636 40.125,27.397 16.364,3.636 3.636,16.364 27.397,40.125 
			3.636,63.886 16.364,76.614 40.125,52.854 63.886,76.614 76.614,63.886 52.854,40.125 		"/>
	</g>
	<path id="trashcan" display="none" d="M17.75,25.167v44.5h44.5v-44.5H17.75z M30.111,59.778c0,1.363-1.108,2.472-2.472,2.472
		c-1.364,0-2.472-1.108-2.472-2.472V35.056c0-1.364,1.108-2.473,2.472-2.473c1.364,0,2.472,1.108,2.472,2.473V59.778z
		 M42.473,59.778c0,1.363-1.108,2.472-2.473,2.472s-2.472-1.108-2.472-2.472V35.056c0-1.364,1.108-2.473,2.472-2.473
		s2.473,1.108,2.473,2.473V59.778z M54.834,59.778c0,1.363-1.108,2.472-2.473,2.472s-2.473-1.108-2.473-2.472V35.056
		c0-1.364,1.108-2.473,2.473-2.473s2.473,1.108,2.473,2.473V59.778z M64.723,15.277v4.945H15.277v-4.945h14.119
		c2.225,0,4.032-2.717,4.032-4.944h13.141c0,2.227,1.804,4.944,4.032,4.944H64.723z"/>
	<path id="magnifier" display="none" d="M69.477,58.907L52.599,42.029c7.014-14.545-3.59-31.724-19.958-31.724
		c-12.203,0-22.136,9.933-22.136,22.139c0,16.105,16.675,26.72,31.183,20.208l17.022,17.021
		C63.552,70.081,69.893,63.919,69.477,58.907z M32.64,47.226c-8.148,0-14.779-6.631-14.779-14.781
		c0-8.148,6.631-14.779,14.779-14.779c8.152,0,14.784,6.631,14.784,14.779C47.424,40.594,40.792,47.226,32.64,47.226z"/>
	<g id="forbidden" display="none">
		<g display="inline">
			<path d="M40,16.306c13.064,0,23.693,10.629,23.693,23.694c0,13.065-10.629,23.694-23.693,23.694
				c-13.065,0-23.694-10.629-23.694-23.694C16.306,26.935,26.935,16.306,40,16.306 M40,10.306
				c-16.399,0-29.694,13.294-29.694,29.694S23.601,69.694,40,69.694S69.693,56.399,69.693,40S56.399,10.306,40,10.306L40,10.306z"/>
		</g>
		<g display="inline">
			<polygon points="57,37 23,37 23,43 57,43 57,37 			"/>
		</g>
	</g>
	<g id="warning">
		<g>
			<path d="M40,23.417L60.292,64H19.708L40,23.417 M40,10L10,70h60L40,10L40,10z"/>
		</g>
		<g>
			<path d="M42.737,55.696v5.369h-5.475v-5.369H42.737z M41.203,53.604h-2.476l-1.325-10.742v-6.695h5.163v6.695L41.203,53.604z"/>
		</g>
	</g>
</g>
</svg>
